<svg width="218" height="191" viewBox="0 0 218 191" fill="none" xmlns="http://www.w3.org/2000/svg">
<path fill-rule="evenodd" clip-rule="evenodd" d="M59.7655 174.392C49.8825 168.527 41.2702 161.231 34.6703 153.075C18.3171 132.81 14.4342 107.235 20.7836 87.2538C26.4862 69.3082 40.4423 55.9396 55.1069 41.8921C56.7704 40.2983 58.4433 38.6959 60.1142 37.077C61.6174 35.6205 63.1186 34.1505 64.6213 32.679C67.6498 29.7134 70.685 26.7413 73.7558 23.8593C67.3791 19.7167 60.9299 16.6449 53.9596 15.3852C36.9609 12.3132 16.9159 20.0189 7.85319 33.8943C-0.353109 46.5178 0.518229 64.2081 1.38053 81.7122C1.46769 83.4835 1.55485 85.2529 1.63249 87.015C1.71842 88.9735 1.79313 90.9227 1.86735 92.8613C2.52165 109.953 3.14445 126.219 11.2839 140.75C20.2257 156.714 38.1896 170.535 59.7655 174.392Z" fill="#D0C8B6" fill-opacity="0.45"/>
<path fill-rule="evenodd" clip-rule="evenodd" d="M175.517 162.637C180.017 166.073 184.407 168.739 189.457 169.435C197.838 170.59 208.007 166.317 212.867 159.216C217.27 152.756 217.283 143.975 217.297 135.286C217.298 134.407 217.299 133.529 217.305 132.654C217.312 131.681 217.324 130.713 217.336 129.75C217.442 121.262 217.543 113.185 213.86 106.135C209.76 98.2855 200.991 91.7344 190.153 90.4083C187.844 90.1288 185.441 90.0855 183.003 90.2715C183.216 91.8516 183.435 93.44 183.655 95.0342C186.681 116.961 189.858 139.987 179.101 157.596C178.038 159.33 176.839 161.012 175.517 162.637Z" fill="white" fill-opacity="0.2"/>
<g filter="url(#filter0_i_132_49)">
<path d="M168.813 22.6696C181.238 38.5575 181.284 60.5251 184.345 85.2081C187.405 109.891 193.481 137.33 181.101 157.596C168.676 177.861 137.751 190.952 107.876 190.06C78.0014 189.169 49.1773 174.213 32.7782 153.948C16.4247 133.683 12.5419 108.108 18.8914 88.1263C25.2409 68.1448 41.8228 53.8375 58.2219 37.9496C74.5754 22.1022 90.7004 4.67406 111.165 0.823664C131.63 -2.9862 156.388 6.78164 168.813 22.6696Z" fill="#E6CDB5" fill-opacity="0.5"/>
</g>
<defs>
<filter id="filter0_i_132_49" x="16" y="0" width="202.56" height="250.103" filterUnits="userSpaceOnUse" color-interpolation-filters="sRGB">
<feFlood flood-opacity="0" result="BackgroundImageFix"/>
<feBlend mode="normal" in="SourceGraphic" in2="BackgroundImageFix" result="shape"/>
<feColorMatrix in="SourceAlpha" type="matrix" values="0 0 0 0 0 0 0 0 0 0 0 0 0 0 0 0 0 0 127 0" result="hardAlpha"/>
<feOffset dx="30" dy="60"/>
<feGaussianBlur stdDeviation="35"/>
<feComposite in2="hardAlpha" operator="arithmetic" k2="-1" k3="1"/>
<feColorMatrix type="matrix" values="0 0 0 0 1 0 0 0 0 1 0 0 0 0 1 0 0 0 0.5 0"/>
<feBlend mode="normal" in2="shape" result="effect1_innerShadow_132_49"/>
</filter>
</defs>
</svg>
